<svg xmlns="http://www.w3.org/2000/svg" xmlns:xlink="http://www.w3.org/1999/xlink" width="40" height="40" preserveAspectRatio="xMidYMid meet" viewBox="0 0 24 24" style="-ms-transform: rotate(360deg); -webkit-transform: rotate(360deg); transform: rotate(360deg);"><path d="M19 5h-1V4a1 1 0 0 0-1-1H5a1 1 0 0 0-1 1v9a4 4 0 0 0 4 4h6c1.858 0 3.411-1.279 3.858-3H19a3 3 0 0 0 3-3V8a3 3 0 0 0-3-3zm1 6a1 1 0 0 1-1 1h-1V7h1a1 1 0 0 1 1 1v3zm-2 8H3c0 1.654 1.346 3 3 3h11c1.654 0 3-1.346 3-3h-2z" fill="#0F2128"/><rect x="0" y="0" width="24" height="24" fill="rgba(0, 0, 0, 0)" /></svg>